<?xml version="1.0" standalone="no"?>
<!DOCTYPE svg PUBLIC "-//W3C//DTD SVG 20010904//EN"
 "http://www.w3.org/TR/2001/REC-SVG-20010904/DTD/svg10.dtd">
<svg version="1.0" xmlns="http://www.w3.org/2000/svg"
 width="468.000000pt" height="468.000000pt" viewBox="0 0 468.000000 468.000000"
 preserveAspectRatio="xMidYMid meet">
<metadata>
Created by potrace 1.14, written by Peter Selinger 2001-2017
</metadata>
<g transform="translate(0.000000,468.000000) scale(0.100000,-0.100000)"
fill="#000000" stroke="none">
<path d="M2248 4555 c-2 -2 -26 -5 -55 -9 -28 -3 -63 -10 -76 -15 -14 -5 -28
-7 -31 -4 -3 4 -6 1 -6 -6 0 -7 -4 -10 -8 -7 -16 10 -158 -41 -307 -109 -110
-50 -115 -52 -160 -66 -22 -6 -47 -14 -55 -17 -34 -12 -48 -13 -107 -14 -76 0
-136 27 -173 76 -43 59 -82 79 -158 81 -84 3 -183 -28 -366 -113 l-129 -61
-18 22 c-9 12 -22 41 -29 64 -11 36 -22 48 -72 78 -33 19 -63 35 -68 35 -5 0
-10 3 -12 8 -4 10 -83 52 -97 52 -7 0 -9 -5 -6 -10 6 -10 10 -56 19 -213 l4
-69 48 -31 c49 -33 72 -67 197 -297 22 -41 51 -92 64 -112 13 -21 23 -40 23
-42 0 -3 15 -31 34 -63 34 -58 66 -116 116 -208 39 -71 69 -125 90 -160 9 -16
31 -55 48 -86 17 -32 37 -68 46 -81 16 -24 15 -26 -16 -54 -40 -36 -149 -160
-162 -183 -5 -9 -15 -22 -22 -29 -55 -55 -221 -358 -240 -439 -4 -15 -11 -34
-17 -40 -5 -7 -6 -13 -3 -13 4 0 2 -9 -4 -21 -10 -18 -35 -102 -46 -154 -32
-158 -39 -222 -39 -390 0 -134 8 -262 20 -305 2 -8 6 -26 9 -40 13 -71 59
-237 78 -280 6 -14 14 -34 18 -45 26 -67 101 -212 148 -285 130 -202 248 -327
474 -503 12 -10 33 -23 46 -28 12 -5 22 -13 22 -19 0 -5 6 -10 14 -10 8 0 21
-6 28 -13 27 -27 266 -137 363 -167 158 -50 161 -51 264 -66 25 -4 55 -9 66
-12 27 -7 428 -11 440 -4 5 3 21 7 35 8 34 4 90 12 115 18 44 9 151 37 165 43
8 3 17 7 20 8 160 43 423 186 580 315 70 58 210 196 250 249 14 18 33 42 43
54 41 48 128 187 171 272 41 82 116 267 116 289 0 5 24 32 53 60 47 46 64 77
83 149 1 4 2 8 4 10 5 7 19 105 26 192 l6 69 77 76 c86 84 143 184 166 289 3
12 7 31 10 44 11 44 17 103 19 187 2 76 -1 113 -17 230 -8 56 -38 194 -45 205
-4 5 -7 12 -7 15 -3 20 -34 97 -66 162 -31 62 -159 269 -179 288 -3 3 -35 51
-72 107 -112 168 -153 264 -160 368 -1 21 11 64 27 96 28 55 82 94 232 170
l142 72 -18 26 c-26 35 -67 72 -121 108 -48 32 -120 67 -132 65 -5 -1 -8 3 -8
10 0 6 -3 9 -6 5 -4 -3 -21 0 -39 7 -51 22 -194 54 -270 62 -155 16 -249 7
-435 -42 -93 -24 -138 -35 -155 -39 -11 -3 -33 -8 -50 -12 -54 -12 -69 -14
-155 -18 -49 -2 -102 1 -125 8 -40 12 -109 73 -171 152 -35 45 -97 80 -159 91
-25 5 -144 11 -147 9z"/>
</g>
</svg>
